<svg width="48.000000" height="48.000000" viewBox="0 0 48 48" fill="none" xmlns="http://www.w3.org/2000/svg" xmlns:xlink="http://www.w3.org/1999/xlink">
	<desc>
			Created with Pixso.
	</desc>
	<defs>
		<clipPath id="clip2_5683">
			<rect id="vk" rx="0.000000" width="17.000000" height="17.000000" transform="translate(15.500000 15.500000)" fill="white" fill-opacity="0"/>
		</clipPath>
	</defs>
	<rect id="Rectangle" x="0.500000" y="0.500000" rx="23.500000" width="47.000000" height="47.000000" stroke="#FFFFFF" stroke-opacity="1.000000" stroke-width="1.000000"/>
	<rect id="vk" rx="0.000000" width="17.000000" height="17.000000" transform="translate(15.500000 15.500000)" fill="#FFFFFF" fill-opacity="0"/>
	<g clip-path="url(#clip2_5683)">
		<path id="XMLID 807" d="M30.49 25.38C31.08 25.96 31.71 26.51 32.25 27.15C32.49 27.44 32.71 27.73 32.88 28.06C33.12 28.53 32.9 29.05 32.48 29.08L29.86 29.08C29.18 29.13 28.64 28.86 28.19 28.4C27.83 28.03 27.49 27.64 27.14 27.25C27 27.1 26.85 26.95 26.67 26.83C26.31 26.6 26 26.67 25.8 27.05C25.59 27.43 25.54 27.85 25.52 28.27C25.49 28.89 25.31 29.05 24.69 29.08C23.36 29.14 22.1 28.94 20.93 28.27C19.9 27.68 19.1 26.85 18.41 25.91C17.05 24.07 16.02 22.06 15.09 19.98C14.88 19.52 15.03 19.27 15.54 19.26C16.4 19.24 17.26 19.24 18.11 19.26C18.46 19.26 18.69 19.46 18.82 19.79C19.29 20.93 19.85 22.01 20.56 23.01C20.75 23.28 20.95 23.55 21.22 23.74C21.53 23.94 21.76 23.88 21.9 23.54C21.99 23.32 22.03 23.09 22.05 22.86C22.12 22.07 22.13 21.28 22.01 20.49C21.94 20 21.66 19.68 21.17 19.59C20.92 19.54 20.95 19.45 21.08 19.3C21.29 19.06 21.48 18.9 21.88 18.9L24.84 18.9C25.31 18.99 25.41 19.2 25.48 19.67L25.48 22.96C25.47 23.15 25.57 23.69 25.9 23.81C26.16 23.89 26.33 23.68 26.49 23.52C27.2 22.76 27.71 21.87 28.16 20.95C28.36 20.55 28.53 20.13 28.7 19.7C28.82 19.39 29.02 19.24 29.37 19.25L32.22 19.25C32.31 19.25 32.39 19.25 32.47 19.26C32.95 19.35 33.09 19.55 32.94 20.02C32.7 20.76 32.25 21.37 31.8 21.99C31.33 22.65 30.82 23.28 30.35 23.94C29.91 24.55 29.95 24.85 30.49 25.38Z" fill="#FFFFFF" fill-opacity="1.000000" fill-rule="evenodd"/>
	</g>
</svg>
