<svg width="48.000000" height="48.000000" viewBox="0 0 48 48" fill="none" xmlns="http://www.w3.org/2000/svg" xmlns:xlink="http://www.w3.org/1999/xlink">
	<desc>
			Created with Pixso.
	</desc>
	<defs>
		<clipPath id="clip2_5688">
			<rect id="instagram " rx="0.000000" width="17.000000" height="17.000000" transform="translate(15.500000 15.500000)" fill="white" fill-opacity="0"/>
		</clipPath>
	</defs>
	<rect id="Rectangle" x="0.500000" y="0.500000" rx="23.500000" width="47.000000" height="47.000000" stroke="#FFFFFF" stroke-opacity="1.000000" stroke-width="1.000000"/>
	<rect id="instagram " rx="0.000000" width="17.000000" height="17.000000" transform="translate(15.500000 15.500000)" fill="#FFFFFF" fill-opacity="0"/>
	<g clip-path="url(#clip2_5688)">
		<path id="Vector" d="M32.98 20.29C32.94 19.33 32.78 18.67 32.56 18.1C32.33 17.5 31.98 16.96 31.52 16.51C31.07 16.05 30.52 15.69 29.93 15.47C29.35 15.25 28.7 15.09 27.74 15.05C26.78 15.01 26.47 15 24.03 15C21.58 15 21.28 15.01 20.32 15.05C19.36 15.09 18.7 15.24 18.14 15.47C17.53 15.69 16.99 16.05 16.54 16.51C16.08 16.96 15.73 17.5 15.5 18.1C15.28 18.67 15.13 19.33 15.08 20.28C15.04 21.25 15.03 21.55 15.03 24C15.03 26.44 15.04 26.75 15.08 27.71C15.12 28.66 15.28 29.32 15.5 29.89C15.73 30.5 16.08 31.04 16.54 31.49C16.99 31.94 17.53 32.3 18.13 32.52C18.7 32.75 19.36 32.9 20.32 32.94C21.28 32.98 21.58 33 24.02 33C26.47 33 26.77 32.98 27.73 32.94C28.69 32.9 29.35 32.75 29.92 32.52C31.13 32.06 32.08 31.1 32.55 29.89C32.77 29.32 32.93 28.66 32.97 27.71C33.01 26.75 33.02 26.44 33.02 24C33.02 21.55 33.02 21.25 32.98 20.29ZM31.36 27.64C31.32 28.52 31.17 28.99 31.05 29.31C30.74 30.09 30.12 30.71 29.34 31.02C29.02 31.14 28.54 31.29 27.67 31.32C26.72 31.37 26.43 31.38 24.03 31.38C21.63 31.38 21.34 31.37 20.4 31.32C19.52 31.29 19.04 31.14 18.73 31.02C18.34 30.87 17.98 30.64 17.69 30.34C17.39 30.05 17.16 29.7 17.02 29.31C16.9 28.99 16.75 28.52 16.71 27.64C16.67 26.69 16.66 26.41 16.66 24C16.66 21.6 16.67 21.31 16.71 20.37C16.75 19.49 16.9 19.01 17.02 18.7C17.16 18.31 17.39 17.95 17.7 17.66C17.99 17.37 18.34 17.14 18.73 16.99C19.05 16.87 19.52 16.72 20.4 16.68C21.35 16.64 21.63 16.63 24.04 16.63C26.44 16.63 26.73 16.64 27.67 16.68C28.55 16.72 29.03 16.87 29.34 16.99C29.73 17.14 30.09 17.37 30.38 17.66C30.67 17.96 30.9 18.31 31.05 18.7C31.17 19.01 31.32 19.49 31.36 20.37C31.4 21.32 31.41 21.6 31.41 24C31.41 26.41 31.4 26.69 31.36 27.64Z" fill="#FFFFFF" fill-opacity="1.000000" fill-rule="nonzero"/>
		<path id="Vector" d="M24.03 19.37C21.48 19.37 19.4 21.44 19.4 24C19.4 26.55 21.48 28.62 24.03 28.62C26.58 28.62 28.65 26.55 28.65 24C28.65 21.44 26.58 19.37 24.03 19.37ZM24.03 27C22.37 27 21.03 25.65 21.03 24C21.03 22.34 22.37 21 24.03 21C25.68 21 27.03 22.34 27.03 24C27.03 25.65 25.68 27 24.03 27Z" fill="#FFFFFF" fill-opacity="1.000000" fill-rule="nonzero"/>
		<path id="Vector" d="M29.91 19.19C29.91 19.79 29.43 20.27 28.84 20.27C28.24 20.27 27.76 19.79 27.76 19.19C27.76 18.59 28.24 18.11 28.84 18.11C29.43 18.11 29.91 18.59 29.91 19.19Z" fill="#FFFFFF" fill-opacity="1.000000" fill-rule="nonzero"/>
	</g>
</svg>
