<svg width="24.000000" height="24.000000" viewBox="0 0 24 24" fill="none" xmlns="http://www.w3.org/2000/svg" xmlns:xlink="http://www.w3.org/1999/xlink">
	<desc>
			Created with Pixso.
	</desc>
	<defs>
		<clipPath id="clip2_4986">
			<rect id="о комп" rx="0.000000" width="23.000000" height="23.000000" transform="translate(0.500000 0.500000)" fill="white" fill-opacity="0"/>
		</clipPath>
	</defs>
	<rect id="о комп" rx="0.000000" width="23.000000" height="23.000000" transform="translate(0.500000 0.500000)" fill="#FFFFFF" fill-opacity="0"/>
	<g clip-path="url(#clip2_4986)">
		<path id="Vector" d="M18.13 18.93L18.13 5.46C18.13 4.65 17.47 4 16.67 4L7.32 4C6.52 4 5.86 4.65 5.86 5.46L5.86 18.93L4 18.93L4 20L20 20L20 18.93L18.13 18.93ZM17.06 18.93L12.53 18.93L12.53 16.79L11.46 16.79L11.46 18.93L6.93 18.93L6.93 5.06L17.06 5.06L17.06 18.93Z" fill="#2F80ED" fill-opacity="1.000000" fill-rule="nonzero"/>
		<path id="Vector" d="M8.79 13.6L9.86 13.6L9.86 14.66L8.79 14.66L8.79 13.6ZM11.46 13.6L12.53 13.6L12.53 14.66L11.46 14.66L11.46 13.6ZM14.13 13.6L15.2 13.6L15.2 14.66L14.13 14.66L14.13 13.6ZM8.79 10.4L9.86 10.4L9.86 11.46L8.79 11.46L8.79 10.4ZM11.46 10.4L12.53 10.4L12.53 11.46L11.46 11.46L11.46 10.4ZM14.13 10.4L15.2 10.4L15.2 11.46L14.13 11.46L14.13 10.4ZM8.79 7.2L9.86 7.2L9.86 8.26L8.79 8.26L8.79 7.2ZM11.46 7.2L12.53 7.2L12.53 8.26L11.46 8.26L11.46 7.2ZM14.13 7.2L15.2 7.2L15.2 8.26L14.13 8.26L14.13 7.2Z" fill="#2F80ED" fill-opacity="1.000000" fill-rule="nonzero"/>
	</g>
</svg>
