<svg width="24.685730" height="24.000000" viewBox="0 0 24.6857 24" fill="none" xmlns="http://www.w3.org/2000/svg" xmlns:xlink="http://www.w3.org/1999/xlink">
	<desc>
			Created with Pixso.
	</desc>
	<defs>
		<clipPath id="clip2_4992">
			<rect id="блог" rx="0.000000" width="23.685715" height="23.000000" transform="translate(0.500000 0.500000)" fill="white" fill-opacity="0"/>
		</clipPath>
	</defs>
	<rect id="блог" rx="0.000000" width="23.685715" height="23.000000" transform="translate(0.500000 0.500000)" fill="#FFFFFF" fill-opacity="0"/>
	<g clip-path="url(#clip2_4992)">
		<path id="Vector" d="M16.66 10.66C16.66 10.84 16.59 11.01 16.47 11.13C16.34 11.26 16.17 11.33 16 11.33L10.66 11.33C10.49 11.33 10.32 11.26 10.19 11.13C10.07 11.01 10 10.84 10 10.66C10 10.48 10.07 10.32 10.19 10.19C10.32 10.07 10.49 10 10.66 10L16 10C16.17 10 16.34 10.07 16.47 10.19C16.59 10.32 16.66 10.48 16.66 10.66ZM16 12.66L10.66 12.66C10.49 12.66 10.32 12.73 10.19 12.86C10.07 12.98 10 13.15 10 13.33C10 13.51 10.07 13.67 10.19 13.8C10.32 13.92 10.49 14 10.66 14L16 14C16.17 14 16.34 13.92 16.47 13.8C16.59 13.67 16.66 13.51 16.66 13.33C16.66 13.15 16.59 12.98 16.47 12.86C16.34 12.73 16.17 12.66 16 12.66ZM20 5.33L20 18.66C20 19.02 19.85 19.35 19.6 19.6C19.35 19.85 19.02 20 18.66 20L5.33 20C4.97 20 4.64 19.85 4.39 19.6C4.14 19.35 4 19.02 4 18.66L4 5.33C4 4.97 4.14 4.64 4.39 4.39C4.64 4.14 4.97 4 5.33 4L18.66 4C19.02 4 19.35 4.14 19.6 4.39C19.85 4.64 20 4.97 20 5.33ZM5.33 18.66L7.33 18.66L7.33 5.33L5.33 5.33L5.33 18.66ZM18.66 18.66L18.66 5.33L8.66 5.33L8.66 18.66L18.66 18.66Z" fill="#2F80ED" fill-opacity="1.000000" fill-rule="nonzero"/>
	</g>
</svg>
