<svg width="24.000000" height="24.000000" viewBox="0 0 24 24" fill="none" xmlns="http://www.w3.org/2000/svg" xmlns:xlink="http://www.w3.org/1999/xlink">
	<desc>
			Created with Pixso.
	</desc>
	<defs>
		<clipPath id="clip2_4996">
			<rect id="конт" rx="0.000000" width="23.000000" height="23.000000" transform="translate(0.500000 0.500000)" fill="white" fill-opacity="0"/>
		</clipPath>
	</defs>
	<rect id="конт" rx="0.000000" width="23.000000" height="23.000000" transform="translate(0.500000 0.500000)" fill="#FFFFFF" fill-opacity="0"/>
	<g clip-path="url(#clip2_4996)">
		<path id="Vector (Stroke)" d="M9.14 9.71C9.14 8.13 10.42 6.85 12 6.85C13.57 6.85 14.85 8.13 14.85 9.71C14.85 11.29 13.57 12.57 12 12.57C10.42 12.57 9.14 11.29 9.14 9.71ZM12 8C11.05 8 10.28 8.76 10.28 9.71C10.28 10.66 11.05 11.42 12 11.42C12.94 11.42 13.71 10.66 13.71 9.71C13.71 8.76 12.94 8 12 8Z" fill="#2F80ED" fill-opacity="1.000000" fill-rule="evenodd"/>
		<path id="Vector (Stroke)" d="M7.42 4.57C6.97 4.57 6.53 4.75 6.21 5.07C5.89 5.39 5.71 5.83 5.71 6.28L5.71 7.42C5.71 7.74 5.45 8 5.14 8L4.57 8L4.57 9.14L5.14 9.14C5.45 9.14 5.71 9.39 5.71 9.71C5.71 10.02 5.45 10.28 5.14 10.28L4.57 10.28L4.57 11.42L5.14 11.42C5.45 11.42 5.71 11.68 5.71 12C5.71 12.31 5.45 12.57 5.14 12.57L4.57 12.57L4.57 13.71L5.14 13.71C5.45 13.71 5.71 13.97 5.71 14.28C5.71 14.6 5.45 14.85 5.14 14.85L4.57 14.85L4.57 16L5.14 16C5.45 16 5.71 16.25 5.71 16.57L5.71 17.71C5.71 18.16 5.89 18.6 6.21 18.92C6.53 19.24 6.97 19.42 7.42 19.42L16.57 19.42C17.02 19.42 17.46 19.24 17.78 18.92C18.1 18.6 18.28 18.16 18.28 17.71L18.28 6.28C18.28 5.83 18.1 5.39 17.78 5.07C17.46 4.75 17.02 4.57 16.57 4.57L7.42 4.57ZM4.57 17.14L4.57 17.71C4.57 18.47 4.87 19.19 5.4 19.73C5.94 20.27 6.67 20.57 7.42 20.57L16.57 20.57C17.32 20.57 18.05 20.27 18.59 19.73C19.12 19.19 19.42 18.47 19.42 17.71L19.42 6.28C19.42 5.52 19.12 4.8 18.59 4.26C18.05 3.72 17.32 3.42 16.57 3.42L7.42 3.42C6.67 3.42 5.94 3.72 5.4 4.26C4.87 4.8 4.57 5.52 4.57 6.28L4.57 6.85L4 6.85C3.68 6.85 3.42 7.11 3.42 7.42L3.42 16.57C3.42 16.88 3.68 17.14 4 17.14L4.57 17.14Z" fill="#2F80ED" fill-opacity="1.000000" fill-rule="evenodd"/>
		<path id="Vector (Stroke)" d="M8.83 12.26C9.37 11.72 10.09 11.42 10.85 11.42L13.14 11.42C13.9 11.42 14.62 11.72 15.16 12.26C15.69 12.8 16 13.52 16 14.28L16 15.42C16 15.88 15.81 16.31 15.49 16.64C15.17 16.96 14.74 17.14 14.28 17.14L9.71 17.14C9.25 17.14 8.82 16.96 8.5 16.64C8.18 16.31 8 15.88 8 15.42L8 14.28C8 13.52 8.3 12.8 8.83 12.26ZM10.85 12.57C10.4 12.57 9.96 12.75 9.64 13.07C9.32 13.39 9.14 13.83 9.14 14.28L9.14 15.42C9.14 15.58 9.2 15.72 9.31 15.83L9.31 15.83C9.41 15.93 9.56 16 9.71 16L14.28 16C14.43 16 14.58 15.93 14.68 15.83L14.68 15.83C14.79 15.72 14.85 15.58 14.85 15.42L14.85 14.28C14.85 13.83 14.67 13.39 14.35 13.07C14.03 12.75 13.59 12.57 13.14 12.57L10.85 12.57Z" fill="#2F80ED" fill-opacity="1.000000" fill-rule="evenodd"/>
	</g>
</svg>
