<svg width="24.000000" height="24.000000" viewBox="0 0 24 24" fill="none" xmlns="http://www.w3.org/2000/svg" xmlns:xlink="http://www.w3.org/1999/xlink">
	<desc>
			Created with Pixso.
	</desc>
	<defs>
		<clipPath id="clip2_5002">
			<rect id="сотр" rx="0.000000" width="23.000000" height="23.000000" transform="translate(0.500000 0.500000)" fill="white" fill-opacity="0"/>
		</clipPath>
	</defs>
	<rect id="сотр" rx="0.000000" width="23.000000" height="23.000000" transform="translate(0.500000 0.500000)" fill="#FFFFFF" fill-opacity="0"/>
	<g clip-path="url(#clip2_5002)">
		<path id="Vector" d="M22.85 10.14L20.66 5.94C20.51 5.65 20.25 5.43 19.94 5.33C19.62 5.23 19.28 5.25 18.99 5.4L16.87 6.46L15.33 6.46L12.34 5.11C12.07 4.98 11.76 4.96 11.48 5.05L7.07 6.33L5 5.3C4.71 5.16 4.37 5.13 4.06 5.23C3.75 5.34 3.49 5.55 3.33 5.84L1.14 10.05C1.06 10.2 1.02 10.36 1 10.52C0.98 10.69 1 10.86 1.05 11.01C1.1 11.17 1.19 11.32 1.3 11.45C1.41 11.57 1.54 11.67 1.69 11.75L3.85 12.83L8.69 16.6C8.83 16.72 8.99 16.8 9.16 16.84L14.34 18.13C14.43 18.16 14.53 18.17 14.63 18.17C14.96 18.17 15.28 18.04 15.52 17.8L18.8 14.51L18.84 14.51L20.2 12.9L22.3 11.84C22.45 11.77 22.59 11.66 22.69 11.54C22.8 11.41 22.89 11.26 22.94 11.1C22.99 10.94 23.01 10.78 22.99 10.61C22.97 10.45 22.93 10.29 22.85 10.14ZM18.34 13.41L14.81 10.84C14.72 10.78 14.61 10.74 14.49 10.74C14.38 10.75 14.27 10.78 14.18 10.85L13.03 11.71C12.63 12.01 12.14 12.17 11.64 12.17C11.14 12.17 10.65 12.01 10.25 11.71L9.76 11.34C9.74 11.33 9.72 11.31 9.71 11.29C9.7 11.26 9.69 11.24 9.69 11.21C9.69 11.19 9.69 11.16 9.7 11.14C9.71 11.11 9.73 11.09 9.75 11.08L13.24 7.58C13.27 7.55 13.32 7.53 13.36 7.53L16.68 7.53L19.21 12.39L18.34 13.41ZM2.08 10.68C2.07 10.66 2.07 10.64 2.07 10.61C2.07 10.59 2.08 10.56 2.09 10.54L4.29 6.33C4.3 6.31 4.33 6.28 4.36 6.27C4.38 6.25 4.42 6.24 4.45 6.24C4.47 6.24 4.5 6.25 4.52 6.26L6.27 7.13L3.9 11.66L2.17 10.78C2.15 10.77 2.13 10.76 2.12 10.74C2.1 10.73 2.09 10.71 2.08 10.68ZM14.76 17.04C14.74 17.06 14.72 17.08 14.69 17.09C14.66 17.09 14.62 17.09 14.6 17.09L9.41 15.8L9.35 15.77L4.82 12.22L7.35 7.36L11.78 6.07C11.82 6.06 11.87 6.07 11.91 6.08L12.92 6.54C12.75 6.6 12.6 6.7 12.48 6.82L8.99 10.32C8.86 10.44 8.76 10.6 8.7 10.76C8.63 10.93 8.61 11.11 8.62 11.29C8.63 11.47 8.68 11.64 8.77 11.8C8.86 11.96 8.98 12.1 9.12 12.2L9.6 12.57C10.19 13 10.91 13.24 11.64 13.24C12.37 13.24 13.09 13 13.68 12.57L14.51 11.94L17.61 14.2L14.76 17.04ZM21.91 10.77C21.9 10.8 21.89 10.82 21.88 10.84C21.86 10.86 21.84 10.87 21.82 10.88L20.09 11.75L17.72 7.23L19.47 6.35C19.51 6.33 19.56 6.33 19.6 6.35C19.65 6.36 19.68 6.39 19.7 6.43L21.9 10.64C21.91 10.66 21.92 10.68 21.92 10.7C21.92 10.73 21.92 10.75 21.91 10.77ZM11.09 19.62C11.06 19.74 10.99 19.84 10.9 19.92C10.8 19.99 10.69 20.03 10.57 20.03L10.43 20.02L7.74 19.34C7.55 19.29 7.37 19.2 7.23 19.07L5.22 17.32C5.15 17.28 5.1 17.22 5.06 17.16C5.02 17.09 4.99 17.02 4.98 16.95C4.97 16.87 4.98 16.79 5 16.72C5.02 16.65 5.06 16.58 5.11 16.52C5.16 16.47 5.22 16.42 5.29 16.39C5.36 16.36 5.43 16.34 5.51 16.34C5.59 16.34 5.66 16.35 5.73 16.38C5.8 16.41 5.86 16.46 5.91 16.52L7.93 18.27C7.95 18.28 7.98 18.3 8 18.3L10.7 18.97C10.84 19.01 10.96 19.1 11.03 19.22C11.1 19.34 11.12 19.49 11.09 19.62Z" fill="#2F80ED" fill-opacity="1.000000" fill-rule="nonzero"/>
	</g>
</svg>
