<svg width="12.000000" height="12.000000" viewBox="0 0 12 12" fill="none" xmlns="http://www.w3.org/2000/svg" xmlns:xlink="http://www.w3.org/1999/xlink">
	<desc>
			Created with Pixso.
	</desc>
	<defs/>
	<rect id="Iconly/Light-outline/Arrow - Down 2" rx="0.000000" width="11.000000" height="11.000000" transform="translate(0.500000 0.500000)" fill="#FFFFFF" fill-opacity="0"/>
	<rect id="Iconly/Light-outline/Arrow - Down 2" rx="0.000000" width="11.000000" height="11.000000" transform="translate(0.500000 0.500000)" fill="#FFFFFF" fill-opacity="0"/>
	<path id="Arrow - Down 2" d="M2.12 3.87C2.26 3.72 2.49 3.71 2.65 3.83L2.7 3.87L6 7.23L9.29 3.87C9.44 3.72 9.67 3.71 9.83 3.83L9.87 3.87C10.02 4.02 10.03 4.25 9.91 4.41L9.87 4.46L6.29 8.12C6.14 8.27 5.91 8.28 5.75 8.16L5.7 8.12L2.12 4.46C1.95 4.3 1.95 4.03 2.12 3.87Z" fill="#000000" fill-opacity="1.000000" fill-rule="nonzero"/>
</svg>
