<svg width="43.250000" height="44.250000" viewBox="0 0 43.25 44.25" fill="none" xmlns="http://www.w3.org/2000/svg" xmlns:xlink="http://www.w3.org/1999/xlink">
	<desc>
			Created with Pixso.
	</desc>
	<defs/>
	<path id="Rectangle 271 (Stroke)" d="M0 0L10.25 0L10.25 2.5L2.5 2.5L2.5 20.25L0 20.25L0 0Z" fill="#3D7DBD" fill-opacity="1.000000" fill-rule="evenodd"/>
	<path id="Rectangle 272 (Stroke)" d="M43.25 39L43.25 44.25L28 44.25L28 41.75L40.75 41.75L40.75 39L43.25 39Z" fill="#3D7DBD" fill-opacity="1.000000" fill-rule="evenodd"/>
	<path id="Rectangle 270 (Stroke)" d="M23.5 24.5L2.5 24.5L2.5 41.5L23.5 41.5L23.5 24.5ZM0 22L0 44L26 44L26 22L0 22Z" fill="#154F7D" fill-opacity="1.000000" fill-rule="evenodd"/>
	<path id="Rectangle 269 (Stroke)" d="M40.5 2.5L14.5 2.5L14.5 34.5L40.5 34.5L40.5 2.5ZM12 0L12 37L43 37L43 0L12 0Z" fill="#3D7DBD" fill-opacity="1.000000" fill-rule="evenodd"/>
</svg>
