<svg width="24.000000" height="24.000000" viewBox="0 0 24 24" fill="none" xmlns="http://www.w3.org/2000/svg" xmlns:xlink="http://www.w3.org/1999/xlink">
	<desc>
			Created with Pixso.
	</desc>
	<defs>
		<clipPath id="clip2_5006">
			<rect id="акции" rx="0.000000" width="23.000000" height="23.000000" transform="translate(0.500000 0.500000)" fill="white" fill-opacity="0"/>
		</clipPath>
	</defs>
	<rect id="акции" rx="0.000000" width="23.000000" height="23.000000" transform="translate(0.500000 0.500000)" fill="#FFFFFF" fill-opacity="0"/>
	<g clip-path="url(#clip2_5006)">
		<path id="Vector (Stroke)" d="M19.22 4.77C19.48 5.03 19.48 5.45 19.22 5.71L5.71 19.22C5.45 19.48 5.03 19.48 4.77 19.22C4.51 18.96 4.51 18.54 4.77 18.28L18.28 4.77C18.54 4.51 18.96 4.51 19.22 4.77Z" fill="#2F80ED" fill-opacity="1.000000" fill-rule="evenodd"/>
		<path id="Vector (Stroke)" d="M13.26 16.63C13.26 14.77 14.77 13.26 16.63 13.26C18.49 13.26 19.99 14.77 19.99 16.63C19.99 18.49 18.49 20 16.63 20C14.77 20 13.26 18.49 13.26 16.63ZM16.63 14.59C15.5 14.59 14.59 15.5 14.59 16.63C14.59 17.75 15.5 18.66 16.63 18.66C17.75 18.66 18.66 17.75 18.66 16.63C18.66 15.5 17.75 14.59 16.63 14.59Z" fill="#2F80ED" fill-opacity="1.000000" fill-rule="evenodd"/>
		<path id="Vector (Stroke)" d="M4 7.36C4 5.5 5.5 4 7.36 4C9.22 4 10.73 5.5 10.73 7.36C10.73 9.22 9.22 10.73 7.36 10.73C5.5 10.73 4 9.22 4 7.36ZM7.36 5.33C6.24 5.33 5.33 6.24 5.33 7.36C5.33 8.49 6.24 9.4 7.36 9.4C8.49 9.4 9.4 8.49 9.4 7.36C9.4 6.24 8.49 5.33 7.36 5.33Z" fill="#2F80ED" fill-opacity="1.000000" fill-rule="evenodd"/>
	</g>
</svg>
