<svg width="40.000000" height="40.000000" viewBox="0 0 40 40" fill="none" xmlns="http://www.w3.org/2000/svg" xmlns:xlink="http://www.w3.org/1999/xlink">
	<desc>
			Created with Pixso.
	</desc>
	<defs>
		<clipPath id="clip2_5618">
			<rect id="vk" rx="0.000000" width="14.000000" height="14.000000" transform="translate(13.000000 13.000000)" fill="white" fill-opacity="0"/>
		</clipPath>
	</defs>
	<rect id="Rectangle" x="0.500000" y="0.500000" rx="19.500000" width="39.000000" height="39.000000" stroke="#2F80ED" stroke-opacity="1.000000" stroke-width="1.000000"/>
	<rect id="vk" rx="0.000000" width="14.000000" height="14.000000" transform="translate(13.000000 13.000000)" fill="#FFFFFF" fill-opacity="0"/>
	<g clip-path="url(#clip2_5618)">
		<path id="XMLID 807" d="M25.4 21.15C25.9 21.63 26.43 22.09 26.87 22.63C27.07 22.86 27.26 23.11 27.4 23.38C27.6 23.78 27.42 24.21 27.07 24.23L24.88 24.23C24.32 24.28 23.87 24.05 23.49 23.66C23.19 23.36 22.91 23.03 22.62 22.71C22.5 22.58 22.37 22.46 22.22 22.36C21.93 22.17 21.67 22.23 21.5 22.54C21.32 22.85 21.28 23.2 21.27 23.56C21.24 24.07 21.09 24.21 20.57 24.23C19.47 24.28 18.42 24.12 17.44 23.56C16.59 23.07 15.92 22.37 15.34 21.59C14.21 20.06 13.35 18.38 12.57 16.65C12.4 16.26 12.52 16.05 12.95 16.05C13.67 16.03 14.38 16.03 15.09 16.05C15.38 16.05 15.57 16.22 15.69 16.49C16.07 17.44 16.54 18.34 17.14 19.18C17.29 19.4 17.45 19.62 17.68 19.78C17.94 19.95 18.13 19.89 18.25 19.61C18.32 19.43 18.36 19.24 18.37 19.05C18.43 18.39 18.44 17.73 18.34 17.07C18.28 16.66 18.05 16.4 17.64 16.32C17.43 16.28 17.46 16.2 17.56 16.08C17.74 15.88 17.9 15.75 18.23 15.75L20.7 15.75C21.09 15.83 21.18 16 21.23 16.39L21.23 19.14C21.23 19.29 21.31 19.74 21.58 19.84C21.8 19.91 21.94 19.73 22.07 19.6C22.67 18.97 23.09 18.23 23.46 17.46C23.63 17.12 23.78 16.77 23.92 16.42C24.02 16.16 24.18 16.03 24.47 16.04L26.85 16.04C26.92 16.04 26.99 16.04 27.06 16.05C27.46 16.12 27.57 16.29 27.45 16.68C27.25 17.3 26.87 17.81 26.5 18.32C26.11 18.87 25.68 19.4 25.29 19.95C24.93 20.46 24.96 20.71 25.4 21.15Z" fill="#2F80ED" fill-opacity="1.000000" fill-rule="evenodd"/>
	</g>
</svg>
