<svg width="40.000000" height="40.000000" viewBox="0 0 40 40" fill="none" xmlns="http://www.w3.org/2000/svg" xmlns:xlink="http://www.w3.org/1999/xlink">
	<desc>
			Created with Pixso.
	</desc>
	<defs>
		<clipPath id="clip2_5623">
			<rect id="instagram " rx="0.000000" width="14.000000" height="14.000000" transform="translate(13.000001 13.000000)" fill="white" fill-opacity="0"/>
		</clipPath>
	</defs>
	<rect id="Rectangle" x="0.500001" y="0.500000" rx="19.500000" width="39.000000" height="39.000000" stroke="#2F80ED" stroke-opacity="1.000000" stroke-width="1.000000"/>
	<rect id="instagram " rx="0.000000" width="14.000000" height="14.000000" transform="translate(13.000001 13.000000)" fill="#FFFFFF" fill-opacity="0"/>
	<g clip-path="url(#clip2_5623)">
		<path id="Vector" d="M27.48 16.91C27.45 16.11 27.32 15.56 27.13 15.09C26.94 14.58 26.65 14.13 26.26 13.76C25.89 13.37 25.43 13.08 24.94 12.89C24.46 12.71 23.91 12.58 23.12 12.54C22.31 12.5 22.06 12.5 20.02 12.5C17.99 12.5 17.73 12.5 16.93 12.54C16.13 12.57 15.59 12.7 15.11 12.89C14.61 13.08 14.16 13.37 13.78 13.76C13.4 14.13 13.1 14.58 12.92 15.08C12.73 15.56 12.6 16.1 12.57 16.9C12.53 17.7 12.52 17.96 12.52 20C12.52 22.03 12.53 22.29 12.57 23.09C12.6 23.89 12.73 24.43 12.91 24.91C13.1 25.41 13.4 25.86 13.78 26.24C14.16 26.62 14.61 26.91 15.11 27.1C15.59 27.29 16.13 27.42 16.93 27.45C17.73 27.49 17.98 27.5 20.02 27.5C22.06 27.5 22.31 27.49 23.11 27.45C23.91 27.42 24.46 27.29 24.93 27.1C25.94 26.71 26.74 25.92 27.13 24.91C27.31 24.43 27.44 23.89 27.47 23.09C27.51 22.29 27.52 22.03 27.52 20C27.52 17.96 27.52 17.7 27.48 16.91ZM26.13 23.03C26.1 23.76 25.97 24.16 25.87 24.42C25.62 25.07 25.1 25.59 24.45 25.85C24.18 25.95 23.79 26.07 23.06 26.1C22.26 26.14 22.03 26.15 20.03 26.15C18.02 26.15 17.78 26.14 17 26.1C16.26 26.07 15.87 25.95 15.6 25.85C15.28 25.73 14.98 25.53 14.74 25.29C14.49 25.04 14.3 24.75 14.18 24.42C14.08 24.16 13.96 23.76 13.93 23.03C13.89 22.24 13.88 22 13.88 20C13.88 18 13.89 17.76 13.93 16.97C13.96 16.24 14.08 15.84 14.18 15.58C14.3 15.26 14.49 14.96 14.75 14.72C14.99 14.47 15.28 14.28 15.61 14.16C15.87 14.06 16.27 13.93 17 13.9C17.79 13.87 18.03 13.86 20.03 13.86C22.03 13.86 22.27 13.87 23.06 13.9C23.79 13.93 24.19 14.06 24.45 14.16C24.78 14.28 25.07 14.47 25.31 14.72C25.56 14.96 25.75 15.26 25.87 15.58C25.97 15.84 26.1 16.24 26.13 16.97C26.16 17.76 26.17 18 26.17 20C26.17 22 26.16 22.24 26.13 23.03Z" fill="#2F80ED" fill-opacity="1.000000" fill-rule="nonzero"/>
		<path id="Vector" d="M20.02 16.14C17.9 16.14 16.17 17.87 16.17 20C16.17 22.12 17.9 23.85 20.02 23.85C22.15 23.85 23.88 22.12 23.88 20C23.88 17.87 22.15 16.14 20.02 16.14ZM20.02 22.5C18.64 22.5 17.52 21.38 17.52 20C17.52 18.62 18.64 17.5 20.02 17.5C21.4 17.5 22.52 18.62 22.52 20C22.52 21.38 21.4 22.5 20.02 22.5Z" fill="#2F80ED" fill-opacity="1.000000" fill-rule="nonzero"/>
		<path id="Vector" d="M24.93 15.99C24.93 16.49 24.53 16.89 24.03 16.89C23.53 16.89 23.13 16.49 23.13 15.99C23.13 15.49 23.53 15.09 24.03 15.09C24.53 15.09 24.93 15.49 24.93 15.99Z" fill="#2F80ED" fill-opacity="1.000000" fill-rule="nonzero"/>
	</g>
</svg>
