<svg width="23.997559" height="24.554871" viewBox="0 0 23.9976 24.5549" fill="none" xmlns="http://www.w3.org/2000/svg" xmlns:xlink="http://www.w3.org/1999/xlink">
	<desc>
			Created with Pixso.
	</desc>
	<defs/>
	<path id="Rectangle 271 (Stroke)" d="M0 0L5.68 0L5.68 1.38L1.38 1.38L1.38 11.23L0 11.23L0 0Z" fill="#FFFFFF" fill-opacity="1.000000" fill-rule="evenodd"/>
	<path id="Rectangle 272 (Stroke)" d="M23.99 21.64L23.99 24.55L15.53 24.55L15.53 23.16L22.61 23.16L22.61 21.64L23.99 21.64Z" fill="#FFFFFF" fill-opacity="1.000000" fill-rule="evenodd"/>
	<path id="Rectangle 270 (Stroke)" d="M13.04 13.59L1.38 13.59L1.38 23.02L13.04 23.02L13.04 13.59ZM0 12.2L0 24.41L14.42 24.41L14.42 12.2L0 12.2Z" fill="#154F7D" fill-opacity="1.000000" fill-rule="evenodd"/>
	<path id="Rectangle 269 (Stroke)" d="M22.47 1.38L8.04 1.38L8.04 19.14L22.47 19.14L22.47 1.38ZM6.66 0L6.66 20.53L23.86 20.53L23.86 0L6.66 0Z" fill="#FFFFFF" fill-opacity="1.000000" fill-rule="evenodd"/>
</svg>
